M48
; DRILL file {KiCad 5.1.9} date Tue Feb  9 23:32:45 2021
; FORMAT={-:-/ absolute / inch / decimal}
; #@! TF.CreationDate,2021-02-09T23:32:45+01:00
; #@! TF.GenerationSoftware,Kicad,Pcbnew,5.1.9
FMAT,2
INCH
T1C0.0079
T2C0.0118
T3C0.0130
T4C0.0157
T5C0.0276
T6C0.0350
T7C0.0390
T8C0.0441
T9C0.0520
T10C0.0591
T11C0.0669
T12C0.0454
T13C0.0618
T14C0.0650
T15C0.0787
T16C0.1260
T17C0.1280
%
G90
G05
T1
X10.816Y-1.9092
X10.8386Y-1.8718
X10.8386Y-1.9466
X10.8612Y-1.9092
T2
X9.01Y-1.52
X9.0148Y-1.5906
X9.0166Y-2.3923
X9.0478Y-2.3635
X9.05Y-1.28
X9.0542Y-1.6336
X9.055Y-1.34
X9.059Y-1.9574
X9.0596Y-2.0356
X9.0612Y-1.7992
X9.0638Y-1.8778
X9.079Y-2.3921
X9.09Y-1.245
X9.09Y-1.37
X9.0962Y-1.757
X9.099Y-1.9963
X9.099Y-2.0774
X9.13Y-1.28
X9.13Y-1.34
X9.1578Y-1.7085
X9.1578Y-1.7321
X9.1578Y-1.7557
X9.17Y-1.245
X9.17Y-1.375
X9.1814Y-1.7085
X9.1814Y-1.7321
X9.1814Y-1.7557
X9.205Y-1.34
X9.206Y-1.278
X9.209Y-1.9262
X9.2287Y-1.6612
X9.2287Y-1.6848
X9.2302Y-2.4026
X9.2304Y-2.493
X9.2523Y-1.6612
X9.2523Y-1.6848
X9.2523Y-1.8502
X9.2684Y-2.4498
X9.2759Y-1.8502
X9.2946Y-1.594
X9.2996Y-1.8502
X9.3088Y-1.5583
X9.3119Y-2.3303
X9.3128Y-1.733
X9.328Y-1.7086
X9.3459Y-1.3212
X9.3477Y-0.9976
X9.3538Y-0.0836
X9.355Y0.3676
X9.3586Y-2.0408
X9.3592Y-1.5254
X9.3694Y-0.3758
X9.3694Y-0.492
X9.3836Y-1.5042
X9.3836Y-1.5866
X9.3854Y-1.3053
X9.3886Y0.4042
X9.3902Y-0.2022
X9.3934Y0.1254
X9.4078Y-0.3806
X9.4078Y-0.6904
X9.4096Y-1.7374
X9.41Y-2.3282
X9.4102Y-1.5464
X9.4198Y-1.962
X9.422Y0.1568
X9.422Y0.094
X9.4226Y-1.4202
X9.4246Y-0.1642
X9.4246Y-0.2392
X9.4262Y0.0058
X9.4328Y-1.5928
X9.438Y0.0442
X9.44Y-0.2784
X9.4416Y-2.0412
X9.448Y-1.4202
X9.4564Y-1.5928
X9.4574Y-1.7137
X9.475Y-1.479
X9.4782Y-1.4301
X9.4801Y-1.5928
X9.481Y-1.7137
X9.482Y0.0752
X9.4822Y0.157
X9.4842Y-0.459
X9.4842Y-0.6116
X9.4844Y-0.166
X9.4844Y-0.2522
X9.4884Y-2.0628
X9.5018Y-1.4301
X9.5018Y-1.4537
X9.5037Y-1.5928
X9.5047Y-1.7137
X9.5108Y0.1256
X9.5178Y-0.2024
X9.5255Y-1.4301
X9.5255Y-1.4537
X9.5276Y0.0442
X9.5283Y-1.7137
X9.529Y-0.2784
X9.5348Y-0.3296
X9.5348Y-0.632
X9.538Y-2.0154
X9.538Y-2.041
X9.5388Y-1.9642
X9.5519Y-1.7137
X9.5526Y0.368
X9.5594Y-1.1094
X9.5596Y-1.0326
X9.561Y-0.4064
X9.561Y-0.5132
X9.5611Y-1.1614
X9.5615Y-0.9976
X9.564Y-0.3552
X9.5642Y-0.1632
X9.566Y-0.9266
X9.5668Y0.1778
X9.5668Y-0.0586
X9.5854Y0.404
X9.5912Y-0.1094
X9.5916Y-0.3806
X9.5917Y-0.7083
X9.5976Y-0.9914
X9.6016Y-1.599
X9.6192Y-0.007
X9.6192Y-0.3296
X9.6193Y-0.6807
X9.6433Y-0.6579
X9.6434Y-0.3042
X9.6436Y-0.084
X9.646Y0.0188
X9.6478Y-2.0018
X9.649Y-2.0826
X9.6608Y-1.6362
X9.666Y-0.1094
X9.6678Y-0.432
X9.6682Y-0.2784
X9.6728Y-1.4274
X9.686Y-1.9654
X9.6868Y-1.8902
X9.6872Y-2.0412
X9.7025Y-1.84
X9.711Y-0.1306
X9.7126Y-0.2576
X9.7128Y-0.453
X9.713Y-1.4282
X9.7212Y-1.014
X9.7216Y-1.0962
X9.7478Y-1.3164
X9.7478Y-1.4268
X9.7492Y0.368
X9.7552Y-0.1096
X9.756Y-0.2784
X9.756Y-0.4318
X9.7625Y-1.055
X9.7774Y-0.0582
X9.7818Y0.4044
X9.7824Y-0.406
X9.7856Y-1.3156
X9.7856Y-1.3392
X9.7856Y-1.3629
X9.7856Y-1.3865
X9.7856Y-1.4101
X9.8038Y-1.014
X9.8042Y-1.0962
X9.8092Y-1.3865
X9.8092Y-1.4101
X9.8098Y-0.3552
X9.8098Y-0.492
X9.8126Y-1.6978
X9.8156Y-1.5203
X9.8186Y-1.7356
X9.8186Y-1.7592
X9.8186Y-1.7829
X9.8329Y-1.3865
X9.8329Y-1.4101
X9.8378Y-1.5002
X9.8422Y-1.7356
X9.8422Y-1.7592
X9.8433Y-1.8369
X9.8544Y-0.5132
X9.8546Y0.1312
X9.8565Y-1.4101
X9.8659Y-1.7356
X9.8659Y-1.8537
X9.8659Y-1.8774
X9.8659Y-1.901
X9.8659Y-1.9246
X9.8659Y-1.9482
X9.8659Y-1.9718
X9.8659Y-1.9955
X9.8895Y-1.9718
X9.8895Y-1.9955
X9.8974Y-1.285
X9.9131Y-1.9718
X9.9131Y-1.9955
X9.921Y-1.285
X9.9287Y-1.7324
X9.9367Y-1.9718
X9.9436Y-2.2532
X9.9447Y-1.285
X9.9447Y-1.3086
X9.9447Y-1.3323
X9.9447Y-1.3559
X9.9456Y0.3682
X9.9484Y-1.7521
X9.957Y-1.838
X9.9594Y-0.1632
X9.9596Y0.0946
X9.9598Y-2.214
X9.9598Y-2.2926
X9.961Y-1.2484
X9.966Y-1.4222
X9.966Y-1.448
X9.9681Y-1.7324
X9.9683Y-1.285
X9.9683Y-1.3086
X9.9683Y-1.3323
X9.9683Y-1.3559
X9.9683Y-1.3795
X9.9686Y-2.3308
X9.9719Y-1.5413
X9.9741Y-1.6397
X9.9784Y0.4046
X9.9821Y-0.6579
X9.9825Y-1.205
X9.9854Y-2.1342
X9.986Y-1.838
X10.0117Y-0.7083
X10.0125Y-1.195
X10.035Y-1.814
X10.0368Y-2.3048
X10.0398Y0.1778
X10.0514Y-1.8378
X10.0543Y-1.1975
X10.0543Y-0.6807
X10.06Y-2.1745
X10.0693Y-2.0821
X10.0693Y-2.1079
X10.0693Y-2.2003
X10.0771Y-1.8378
X10.0872Y-1.98
X10.0938Y-1.7013
X10.1125Y-1.455
X10.1137Y-1.984
X10.115Y-1.2484
X10.116Y-1.9423
X10.1173Y-0.513
X10.1197Y-1.2102
X10.138Y-2.214
X10.139Y-1.9856
X10.139Y-2.0644
X10.1422Y0.3678
X10.15Y-1.725
X10.1531Y-0.4953
X10.1531Y-1.033
X10.1531Y-1.2004
X10.1552Y-2.2536
X10.1609Y-1.4822
X10.1664Y-2.025
X10.1679Y-1.905
X10.1685Y-1.6796
X10.1728Y-1.8488
X10.1752Y0.4038
X10.1764Y-2.0842
X10.1847Y-1.5961
X10.1866Y-0.5378
X10.1866Y-1.185
X10.1875Y-1.4325
X10.1922Y-1.7278
X10.2076Y-1.9948
X10.208Y-2.134
X10.21Y-1.3675
X10.2119Y-1.8108
X10.2181Y-0.4441
X10.2236Y-1.4145
X10.2236Y-1.4381
X10.225Y-1.2725
X10.2366Y0.1314
X10.2398Y-2.0242
X10.2472Y-1.3909
X10.2472Y-1.4145
X10.2472Y-1.4381
X10.2512Y-1.2154
X10.2528Y-1.0019
X10.2528Y-1.0692
X10.2709Y-1.3909
X10.2709Y-1.4145
X10.2709Y-1.4381
X10.2711Y-1.6762
X10.2713Y-1.235
X10.2811Y-1.033
X10.2906Y-1.5966
X10.2945Y-1.3909
X10.2945Y-1.4381
X10.3156Y-1.6188
X10.3191Y-1.4219
X10.32Y-1.4775
X10.3368Y-1.7542
X10.3368Y-1.7857
X10.3368Y-1.8172
X10.3368Y-1.8487
X10.3368Y-1.8802
X10.3368Y-1.9117
X10.3368Y-1.9432
X10.3384Y0.3678
X10.3661Y-0.5169
X10.3665Y-1.3787
X10.3683Y-1.7542
X10.3683Y-1.7857
X10.3683Y-1.8172
X10.3683Y-1.8487
X10.3683Y-1.8802
X10.3683Y-1.9117
X10.3683Y-1.9432
X10.3718Y0.4038
X10.3766Y-2.0509
X10.3797Y-2.0798
X10.3898Y-0.4894
X10.3998Y-1.9432
X10.4157Y-1.4417
X10.4187Y-1.6063
X10.4208Y-1.3818
X10.4217Y-1.5797
X10.4313Y-1.9432
X10.4336Y0.0944
X10.4516Y-1.3544
X10.4516Y-1.47
X10.48Y-0.198
X10.48Y-0.8478
X10.4826Y-1.3816
X10.483Y-1.4418
X10.493Y-1.944
X10.494Y-1.833
X10.5Y0.1657
X10.5012Y-2.0799
X10.5027Y-2.0517
X10.524Y-1.79
X10.53Y-1.455
X10.535Y0.3678
X10.5382Y0.1913
X10.5457Y-1.8507
X10.5457Y-1.8782
X10.5457Y-1.9058
X10.5457Y-1.9334
X10.55Y-0.28
X10.55Y-0.7692
X10.5575Y-0.8475
X10.56Y-1.4475
X10.5686Y0.4042
X10.5732Y-1.8507
X10.5732Y-1.8782
X10.5732Y-1.9058
X10.5732Y-1.9334
X10.59Y-0.96
X10.59Y-1.4575
X10.5925Y-0.7725
X10.6008Y-1.8507
X10.6008Y-1.8782
X10.6008Y-1.9058
X10.6008Y-1.9334
X10.6125Y-1.4775
X10.6175Y-0.8496
X10.6306Y0.1304
X10.6307Y-0.4894
X10.6403Y-1.5047
X10.652Y-1.906
X10.6673Y-1.8189
X10.7328Y0.3678
X10.7514Y-1.5918
X10.7514Y-1.6311
X10.7514Y-1.6705
X10.7514Y-1.7099
X10.7514Y-1.7493
X10.7514Y-1.7886
X10.7544Y-2.0283
X10.7544Y-2.0677
X10.7544Y-2.1071
X10.7544Y-2.1465
X10.7544Y-2.1858
X10.7572Y-1.8897
X10.7652Y0.404
X10.7836Y-1.975
X10.7907Y-1.5918
X10.7907Y-1.6311
X10.7907Y-1.6705
X10.7907Y-1.7099
X10.7907Y-1.7493
X10.7907Y-1.7886
X10.7921Y-0.1606
X10.7921Y-0.8768
X10.7937Y-2.0283
X10.7937Y-2.0677
X10.7937Y-2.1071
X10.7937Y-2.1465
X10.7937Y-2.1858
X10.7962Y-0.0084
X10.812Y-0.6486
X10.8138Y-0.2394
X10.8138Y-0.3264
X10.8272Y0.165
X10.829Y0.0226
X10.829Y-0.044
X10.8301Y-1.828
X10.8331Y-1.989
X10.8331Y-2.0677
X10.8331Y-2.1465
X10.8331Y-2.1858
X10.8398Y-0.8116
X10.8408Y-0.1308
X10.8408Y-0.554
X10.8446Y-0.685
X10.8448Y-0.0794
X10.845Y-0.613
X10.889Y0.028
X10.8891Y-2.3388
X10.8896Y-0.2542
X10.8902Y-0.0498
X10.9052Y-0.6126
X10.906Y-0.693
X10.914Y-1.8282
X10.9144Y-1.9819
X10.9144Y-2.1787
X10.9226Y-0.0086
X10.9269Y-2.299
X10.9279Y-2.3812
X10.929Y0.3684
X10.934Y-0.0794
X10.9354Y-0.2075
X10.9354Y-0.302
X10.9363Y-0.9863
X10.9378Y-0.649
X10.939Y-1.7782
X10.9531Y-0.3539
X10.9533Y-1.592
X10.9533Y-1.6313
X10.9533Y-1.6707
X10.9533Y-1.7101
X10.9533Y-1.7495
X10.9537Y-2.0212
X10.9537Y-2.0606
X10.9537Y-2.1
X10.9537Y-2.1394
X10.9537Y-2.1787
X10.9562Y-0.1562
X10.9563Y-0.8
X10.9566Y0.1912
X10.9601Y-0.7744
X10.9618Y0.4038
X10.9799Y-0.3264
X10.9799Y-0.8256
X10.9913Y-0.0236
X10.9913Y-0.1047
X10.9927Y-1.592
X10.9927Y-1.6313
X10.9927Y-1.6707
X10.9927Y-1.7101
X10.9927Y-1.7495
X10.9931Y-2.0606
X10.9931Y-2.1
X10.9931Y-2.1394
X10.9931Y-2.1787
X11.0043Y-0.3965
X11.0043Y-0.8512
X11.024Y-0.1818
X11.024Y-0.3693
X11.0272Y-0.4756
X11.0272Y-0.8
X11.0321Y-1.592
X11.0321Y-1.6313
X11.0321Y-1.6707
X11.0321Y-1.7101
X11.0321Y-1.7495
X11.0325Y-2.0606
X11.0325Y-2.1
X11.0325Y-2.1394
X11.0325Y-2.1787
X11.0444Y-0.2074
X11.0444Y-0.2814
X11.0484Y-0.7744
X11.0504Y-0.3421
X11.0504Y-0.7488
X11.055Y-0.128
X11.055Y0.1306
X11.0734Y-0.233
X11.074Y-0.4839
X11.074Y-0.8256
X11.089Y-0.8766
X11.1176Y0.165
X11.1176Y-0.0574
X11.118Y-0.2542
X11.1334Y-0.8976
X11.1628Y-0.233
X11.1675Y-1.05
X11.1778Y-0.8768
X11.19Y-0.9625
X11.1966Y-0.1562
X11.1966Y-0.515
X11.2164Y-0.105
X11.2164Y-0.5878
X11.2173Y-0.7488
X11.2173Y-1.2051
X11.2374Y-0.7232
X11.2398Y-1.8799
X11.2398Y-2.0295
X11.2587Y-0.302
X11.2807Y-0.0236
X11.2998Y-2.271
X11.3018Y-2.3458
X11.3378Y-2.23
X11.34Y-2.387
X11.382Y-0.7494
X11.3975Y-2.305
X11.452Y-0.1254
X11.4524Y0.0711
X11.4524Y-0.3226
X11.4524Y-0.5191
X11.4524Y-1.11
X11.4528Y0.2683
X11.4528Y-0.7163
X11.4528Y-0.9128
X11.4576Y-1.3069
X11.4887Y0.2352
X11.4887Y-0.1593
X11.4887Y-0.3565
X11.4887Y-0.5522
X11.4887Y-0.7494
X11.4887Y-1.1435
X11.4887Y-1.3396
X11.4891Y0.0384
X11.49Y-0.946
X11.5213Y0.1063
X11.5213Y-0.7787
X11.5441Y-0.0906
X11.5441Y-0.9843
T3
X9.2366Y-1.5234
T4
X9.9812Y-0.316
X9.9822Y-0.2482
X10.0312Y-0.2086
X10.0812Y-0.316
X10.0938Y-0.2474
X10.1522Y-0.2094
X10.2056Y-0.2842
X10.3248Y-0.2914
X10.3462Y-0.3446
X10.3848Y-0.3082
T5
X9.3114Y-0.2966
X9.3114Y-0.3754
X9.3114Y-0.4541
X9.3114Y-0.5329
X9.3114Y-0.6116
X9.3114Y-0.6903
X9.3114Y-0.7691
X9.3114Y-0.8478
X9.3114Y-0.9266
X10.0299Y-0.1329
X10.1086Y-0.1329
X10.1873Y-0.1329
X10.2661Y-0.1329
X10.3448Y-0.1329
X10.6976Y-0.0817
X10.6976Y-0.1604
X10.6976Y-0.2392
X10.6976Y-0.3179
X10.6976Y-0.3966
X10.6976Y-0.4754
X10.6976Y-0.5541
X10.6976Y-0.6329
X10.6976Y-0.7329
X10.6976Y-0.8116
X10.6976Y-0.8903
X10.6976Y-0.9691
X10.6976Y-1.0478
X10.6976Y-1.1266
X10.6976Y-1.2053
X10.6976Y-1.284
T6
X9.2432Y-2.127
X9.2834Y-2.1971
X9.3232Y-2.127
X9.3633Y-2.1971
X9.4031Y-2.127
X9.4432Y-2.1971
X9.483Y-2.127
X9.5232Y-2.1971
T7
X10.4785Y-2.429
X10.6566Y-2.429
X10.8663Y-2.427
X11.0444Y-2.427
X11.2722Y-2.4318
X11.4503Y-2.4318
T8
X9.1018Y-0.9104
X9.1018Y-1.0104
X9.1018Y-1.1104
X9.259Y-1.779
X9.313Y-1.251
X9.359Y-1.779
X9.413Y-1.251
X9.459Y-1.779
X9.513Y-1.251
X9.559Y-1.779
X9.613Y-1.251
X9.659Y-1.779
X9.713Y-1.251
X9.759Y-1.779
X9.8092Y-1.888
X9.8092Y-1.988
X9.8092Y-2.088
X9.8092Y-2.188
X9.9714Y-2.4456
X10.0714Y-2.4456
X10.1714Y-2.4456
X10.2842Y-2.246
X10.2842Y-2.346
X10.2842Y-2.446
X10.471Y-1.6084
X10.571Y-1.6084
X10.671Y-1.6084
T9
X10.4296Y-2.331
X10.7055Y-2.331
X10.8174Y-2.329
X11.0933Y-2.329
X11.2233Y-2.3337
X11.4992Y-2.3337
T10
X11.415Y-1.6888
X11.415Y-1.8388
X11.415Y-1.9888
X11.415Y-2.1388
T11
X9.2523Y0.269
X9.4492Y0.269
X9.646Y0.269
X9.8429Y0.269
X10.0397Y0.269
X10.2366Y0.269
X10.4334Y0.269
X10.6303Y0.269
X10.8271Y0.269
X11.024Y0.269
X11.382Y0.3283
X11.382Y0.1314
X11.382Y-0.0654
X11.382Y-0.2623
X11.382Y-0.4591
X11.382Y-0.656
X11.382Y-0.8528
X11.382Y-1.0497
X11.382Y-1.2465
X11.382Y-1.4434
T12
X9.0617Y0.3044
X10.64Y-2.0339
X11.2606Y0.3938
T13
X9.0633Y-2.162
T14
X9.7035Y-2.162
T15
X9.3251Y-0.1667
X9.3251Y-1.0754
X10.5708Y-0.1325
T16
X8.8453Y0.3374
X11.7008Y-2.3898
T17
X9.1334Y-2.2971
X9.6334Y-2.2971
T0
M30
